<?xml version="1.0" encoding="UTF-8"?>
<svg id="Layer_1" data-name="Layer 1" xmlns="http://www.w3.org/2000/svg" version="1.1" viewBox="0 0 1366 200">
  <defs>
    <style>
      .cls-1, .cls-2 {
        font-family: Montserrat-ExtraBold, Montserrat;
        font-size: 21.8px;
        font-weight: 700;
      }

      .cls-1, .cls-3 {
        fill: #f8f7fb;
      }

      .cls-4 {
        fill: #d2fffb;
      }

      .cls-4, .cls-5, .cls-6, .cls-7, .cls-8, .cls-3, .cls-9 {
        stroke-width: 0px;
      }

      .cls-2, .cls-10, .cls-8, .cls-11 {
        fill: #002163;
      }

      .cls-5 {
        fill: #e7ebfe;
      }

      .cls-6 {
        fill: #163cf4;
      }

      .cls-7 {
        fill: #00ccc4;
      }

      .cls-10 {
        font-size: 12.1px;
      }

      .cls-10, .cls-11 {
        font-family: Montserrat-SemiBold, Montserrat;
        font-weight: 600;
      }

      .cls-12 {
        fill: none;
        stroke: #d2fffb;
        stroke-linecap: round;
        stroke-linejoin: round;
        stroke-width: 1.3px;
      }

      .cls-11 {
        font-size: 38.7px;
      }

      .cls-9 {
        fill: #fff;
      }
    </style>
  </defs>
  <rect class="cls-5" x="683.5" y="87.3" width="155.8" height="37.5"/>
  <path class="cls-6" d="M728.1,106.4c0,2.7-2.2,4.8-4.8,4.8s-4.8-2.2-4.8-4.8,2.2-4.8,4.8-4.8,4.8,2.2,4.8,4.8Z"/>
  <path class="cls-6" d="M744.5,106.4c0,2.7-2.2,4.8-4.8,4.8s-4.8-2.2-4.8-4.8,2.2-4.8,4.8-4.8,4.8,2.2,4.8,4.8Z"/>
  <path class="cls-6" d="M760.8,106.4c0,2.7-2.2,4.8-4.8,4.8s-4.8-2.2-4.8-4.8,2.2-4.8,4.8-4.8,4.8,2.2,4.8,4.8Z"/>
  <rect class="cls-4" x="544.3" y="87.3" width="139.3" height="37.5"/>
  <path class="cls-7" d="M616,106.4c0,2.7-2.2,4.8-4.8,4.8s-4.8-2.2-4.8-4.8,2.2-4.8,4.8-4.8,4.8,2.2,4.8,4.8Z"/>
  <path class="cls-7" d="M632.4,106.4c0,2.7-2.2,4.8-4.8,4.8s-4.8-2.2-4.8-4.8,2.2-4.8,4.8-4.8,4.8,2.2,4.8,4.8Z"/>
  <path class="cls-7" d="M648.7,106.4c0,2.7-2.2,4.8-4.8,4.8s-4.8-2.2-4.8-4.8,2.2-4.8,4.8-4.8,4.8,2.2,4.8,4.8Z"/>
  <path class="cls-8" d="M690.8,108.7c-.6-.4-1.3-.8-1.9-1.2-.5-.3-1-.6-1.5-.9-.3-.2-.4-.3-.2-.7.4-.7.8-1.3,1.2-2,.9-1.5,1.8-3,2.6-4.6.5-1,.6-2.9-.5-3.8-.6-.6-1.3-1.1-2.1-1.5-2-1-4.1-1.4-6.3-1.5-1.9,0-3.7.1-5.8.7-8,2.4-8.5,8.9-8.4,8.6l3.3,1.9s0,0,0,0c.3-.4.5-.8.9-1.2,1.7-2.1,3.9-3.4,6.5-4.1,1.9-.5,3.8-.5,5.7,0,.4.1.5.2.3.6-1,1.7-1.9,3.3-2.9,5-.8,1.4-.9,2.8-.3,4.2.5,1.2,1.4,2,2.5,2.6,1.3.7,2.6,1.5,4,2.3.5.3.7.7.5,1.2,0,.2-.2.4-.3.6-1.7,3-3.4,5.9-5.1,8.9,0,.2,0,.2,0,0l2.8,2.5c-.2.3,6.2-7,7.5-9.5,2.6-4.9-2.2-8.3-2.5-8.5Z"/>
  <path class="cls-8" d="M694.8,95.3c3.1,0,5.7-2.6,5.7-5.7,0-3.1-2.5-5.7-5.7-5.7-3.1,0-5.7,2.6-5.7,5.6,0,3.2,2.5,5.8,5.7,5.8Z"/>
  <path class="cls-8" d="M681.9,112.5l-.3-.3c0,0-.1,0-.2-.2,0,0-.1-.1-.2-.1l-2-1.7s0,0,0,0c-.2-.2-.5-.4-.7-.6-.3-.3-.5-.2-.7,0-2.8,3.3-5.6,6.6-8.4,9.9-.4.5-.8,1-1.4,1.3-3,1.3-6,2.5-9,3.8,0,0,0,0,0,0l1.8,3.4c-.1,0-.2,0-.3.1,0,0,0,0,.4,0,1.6-.2,7.8-1.4,10.7-2.7.2,0,.4-.2.6-.4,3.3-3.9,6.7-7.9,10-11.8,0,0,.1-.2.2-.3,0,0-.2-.2-.2-.3,0,0-.2-.2-.3-.2Z"/>
  <path class="cls-8" d="M708,97.4l-3.3-1.9s0,0,0,0c-1.3,1.9-3.1,2.9-5.4,3.1-1.4.1-2.7-.1-3.9-.8-.3-.1-.4-.1-.6.2,0,.1-.1.3-.2.4,0,0,0,0,0,0,0,.1-1.6,2.7-1.6,2.7,0,0,0,0-.1.2-.1.3-.3.6-.5.8-.2.3-.1.5.2.6,1.9,1,4,1.6,6.2,1.6,9.3,0,9.5-7.3,9.3-7Z"/>
  <path class="cls-9" d="M514.5,52.8c-26,0-47.2,21.2-47.2,47.2s21.2,47.2,47.2,47.2,47.2-21.2,47.2-47.2-21.2-47.2-47.2-47.2Z"/>
  <path class="cls-4" d="M463.1,61.6H140.8c-1,0-2,.3-2.9.7l-59.5,32.4c-1.9,1-3.1,3-3.1,5.2s1.2,4.2,3.1,5.2l59.5,32.4c.9.5,1.9.7,2.9.7h311.9c-7-11.2-11-24.3-11-38.4h1.7c0,14.1,4.2,27.3,11.3,38.4h8.4c-8-10.7-12.8-24-12.8-38.4s4.8-27.7,12.8-38.4Z"/>
  <circle class="cls-4" cx="514.5" cy="100" r="37.6"/>
  <path class="cls-7" d="M459.5,67.1H144c-1.1,0-2.3.3-3.3.8l-44.5,24.3h354.6c1.1-9.1,4.1-17.6,8.6-25.1Z"/>
  <path class="cls-7" d="M514.5,37.6c-34.4,0-62.4,28-62.4,62.4s28,62.4,62.4,62.4,62.4-28,62.4-62.4-28-62.4-62.4-62.4ZM514.5,148.9c-27,0-48.9-21.9-48.9-48.9s21.9-48.9,48.9-48.9,48.9,21.9,48.9,48.9-21.9,48.9-48.9,48.9Z"/>
  <path class="cls-12" d="M529.3,43.8c-2-.5-4-1-6.1-1.3M569.1,120c2.3-6.2,3.5-13,3.5-20,0-24.9-15.7-46.2-37.8-54.4"/>
  <path class="cls-8" d="M514.5,51.1c-27,0-48.9,21.9-48.9,48.9s21.9,48.9,48.9,48.9,48.9-21.9,48.9-48.9-21.9-48.9-48.9-48.9ZM514.5,147.2c-26,0-47.2-21.2-47.2-47.2s21.2-47.2,47.2-47.2,47.2,21.2,47.2,47.2-21.2,47.2-47.2,47.2Z"/>
  <path class="cls-8" d="M514.5,35.8c-20.2,0-38.2,9.4-50,24H140.8c-1.3,0-2.6.3-3.7.9l-59.5,32.4c-2.5,1.3-4,3.9-4,6.7s1.5,5.4,4,6.8l59.5,32.4c1.1.6,2.4.9,3.7.9h313c13,19.7,35.4,32.7,60.7,32.7v-1.7c-24.3,0-45.8-12.3-58.6-31h8.6c11.8,14.6,29.8,24,50,24,35.4,0,64.2-28.8,64.2-64.2s-28.8-64.2-64.2-64.2ZM454.7,138.4c-7.1-11.1-11.3-24.3-11.3-38.4h-1.7c0,14.1,4,27.2,11,38.4H140.8c-1,0-2-.3-2.9-.7l-59.5-32.4c-1.9-1-3.1-3.1-3.1-5.2s1.2-4.2,3.1-5.2l59.5-32.4c.9-.5,1.9-.7,2.9-.7h322.4c-8,10.7-12.8,24-12.8,38.4s4.8,27.7,12.8,38.4h-8.4ZM514.5,162.4c-34.4,0-62.4-28-62.4-62.4s28-62.4,62.4-62.4,62.4,28,62.4,62.4-28,62.4-62.4,62.4Z"/>
  <path class="cls-8" d="M514.5,27.2v1.7c39.2,0,71.1,31.9,71.1,71.1h1.7c0-40.1-32.7-72.8-72.8-72.8Z"/>
  <path class="cls-8" d="M140.8,48.8h164c.5,0,.9-.4.9-.9s-.4-.9-.9-.9h-164c-.5,0-.9.4-.9.9s.4.9.9.9Z"/>
  <path class="cls-8" d="M441.8,151.2h-164c-.5,0-.9.4-.9.9s.4.9.9.9h164c.5,0,.9-.4.9-.9s-.4-.9-.9-.9Z"/>
  <text class="cls-10" transform="translate(140.8 110.2)"><tspan x="0" y="0">Lacking Sufficient details about talent to </tspan><tspan x="0" y="14.5">make informed decisions?</tspan></text>
  <text class="cls-11" transform="translate(488.4 111.2)"><tspan x="0" y="0">04</tspan></text>
  <text class="cls-2" transform="translate(301.8 87.3)"><tspan x="0" y="0">PROBLEM</tspan></text>
  <path class="cls-9" d="M852.5,147.2c26,0,47.2-21.2,47.2-47.2s-21.2-47.2-47.2-47.2-47.2,21.2-47.2,47.2,21.2,47.2,47.2,47.2Z"/>
  <path class="cls-5" d="M1288.6,94.8l-59.5-32.4c-.9-.5-1.9-.7-2.9-.7h-322.4c8,10.7,12.8,24,12.8,38.4s-4.8,27.7-12.8,38.4h8.4c7.1-11.1,11.3-24.3,11.3-38.4h1.7c0,14.1-4,27.2-11,38.4h311.9c1,0,2-.3,2.9-.7l59.5-32.4c1.9-1,3.1-3.1,3.1-5.2s-1.2-4.2-3.1-5.2Z"/>
  <circle class="cls-5" cx="852.5" cy="100" r="37.6"/>
  <path class="cls-6" d="M907.5,67.1h315.4c1.1,0,2.3.3,3.3.8l44.5,24.3h-354.6c-1.1-9.1-4.1-17.6-8.6-25.1Z"/>
  <path class="cls-6" d="M852.5,162.4c34.4,0,62.4-28,62.4-62.4s-28-62.4-62.4-62.4-62.4,28-62.4,62.4,28,62.4,62.4,62.4ZM852.5,51.1c27,0,48.9,21.9,48.9,48.9s-21.9,48.9-48.9,48.9-48.9-21.9-48.9-48.9,21.9-48.9,48.9-48.9Z"/>
  <path class="cls-3" d="M907.1,121.1c-.1,0-.3,0-.4,0-.6-.2-.9-.9-.7-1.4,2.3-6.3,3.5-12.9,3.5-19.6,0-23.6-14.9-45.1-37-53.4-.6-.2-.9-.9-.7-1.4.2-.6.9-.9,1.4-.7,23,8.6,38.5,30.9,38.5,55.5s-1.2,13.8-3.6,20.4c-.2.5-.6.7-1.1.7ZM867.3,44.9c0,0-.2,0-.3,0-2-.5-4-.9-6-1.2-.6,0-1-.7-.9-1.3,0-.6.7-1,1.3-.9,2.1.3,4.2.8,6.2,1.3.6.2,1,.8.8,1.4-.1.5-.6.8-1.1.8Z"/>
  <path class="cls-8" d="M852.5,28.9v-1.7c-40.1,0-72.8,32.7-72.8,72.8h1.7c0-39.2,31.9-71.1,71.1-71.1Z"/>
  <path class="cls-8" d="M852.5,51.1c-27,0-48.9,21.9-48.9,48.9s21.9,48.9,48.9,48.9,48.9-21.9,48.9-48.9-21.9-48.9-48.9-48.9ZM852.5,147.2c-26,0-47.2-21.2-47.2-47.2s21.2-47.2,47.2-47.2,47.2,21.2,47.2,47.2-21.2,47.2-47.2,47.2Z"/>
  <path class="cls-8" d="M1289.4,93.3l-59.5-32.4c-1.1-.6-2.4-.9-3.7-.9h-323.7c-11.8-14.6-29.8-24-50-24-35.4,0-64.2,28.8-64.2,64.2s28.8,64.2,64.2,64.2,38.2-9.4,50-24h8.6c-12.8,18.7-34.3,31-58.6,31v1.7c25.3,0,47.7-13,60.7-32.7h313c1.3,0,2.6-.3,3.7-.9l59.5-32.4c2.5-1.3,4-3.9,4-6.8s-1.5-5.4-4-6.7ZM852.5,162.4c-34.4,0-62.4-28-62.4-62.4s28-62.4,62.4-62.4,62.4,28,62.4,62.4-28,62.4-62.4,62.4ZM1288.6,105.2l-59.5,32.4c-.9.5-1.9.7-2.9.7h-311.9c7-11.2,11-24.3,11-38.4h-1.7c0,14.1-4.2,27.3-11.3,38.4h-8.4c8-10.7,12.8-24,12.8-38.4s-4.8-27.7-12.8-38.4h322.4c1,0,2,.3,2.9.7l59.5,32.4c1.9,1,3.1,3,3.1,5.2s-1.2,4.2-3.1,5.2Z"/>
  <path class="cls-8" d="M1062.3,48.8h164c.5,0,.9-.4.9-.9s-.4-.9-.9-.9h-164c-.5,0-.9.4-.9.9s.4.9.9.9Z"/>
  <path class="cls-8" d="M1089.1,151.2h-164c-.5,0-.9.4-.9.9s.4.9.9.9h164c.5,0,.9-.4.9-.9s-.4-.9-.9-.9Z"/>
  <text class="cls-10" transform="translate(940.5 110.2)"><tspan x="0" y="0">Access detailed candidate profiles, including dem</tspan><tspan x="318.8" y="0">-</tspan><tspan x="0" y="14.5">graphics, personality tests &amp; video interviews.</tspan></text>
  <text class="cls-11" transform="translate(826.3 111.2)"><tspan x="0" y="0">04</tspan></text>
  <text class="cls-1" transform="translate(947.1 87.3)"><tspan x="0" y="0">SOLUTION</tspan></text>
</svg>