<?xml version="1.0" encoding="UTF-8"?>
<svg id="Layer_1" data-name="Layer 1" xmlns="http://www.w3.org/2000/svg" version="1.1" viewBox="0 0 1366 200">
  <defs>
    <style>
      .cls-1, .cls-2 {
        font-family: Montserrat-ExtraBold, Montserrat;
        font-size: 21.8px;
        font-weight: 700;
      }

      .cls-1, .cls-3 {
        fill: #f8f7fb;
      }

      .cls-4 {
        fill: #d2fffb;
      }

      .cls-4, .cls-5, .cls-6, .cls-7, .cls-8, .cls-3, .cls-9 {
        stroke-width: 0px;
      }

      .cls-2, .cls-10, .cls-8, .cls-11 {
        fill: #002163;
      }

      .cls-5 {
        fill: #e7ebfe;
      }

      .cls-6 {
        fill: #163cf4;
      }

      .cls-7 {
        fill: #00ccc4;
      }

      .cls-10 {
        font-size: 12.1px;
      }

      .cls-10, .cls-11 {
        font-family: Montserrat-SemiBold, Montserrat;
        font-weight: 600;
      }

      .cls-12 {
        fill: none;
        stroke: #d2fffb;
        stroke-linecap: round;
        stroke-linejoin: round;
        stroke-width: 1.3px;
      }

      .cls-11 {
        font-size: 38.7px;
      }

      .cls-9 {
        fill: #fff;
      }
    </style>
  </defs>
  <rect class="cls-5" x="683.4" y="85.6" width="155.8" height="37.5"/>
  <path class="cls-6" d="M728,104.2c0,2.7-2.2,4.8-4.8,4.8s-4.8-2.2-4.8-4.8,2.2-4.8,4.8-4.8,4.8,2.2,4.8,4.8Z"/>
  <path class="cls-6" d="M744.4,104.2c0,2.7-2.2,4.8-4.8,4.8s-4.8-2.2-4.8-4.8,2.2-4.8,4.8-4.8,4.8,2.2,4.8,4.8Z"/>
  <rect class="cls-4" x="544.1" y="85.6" width="139.3" height="37.5"/>
  <path class="cls-7" d="M632.3,104.2c0,2.7-2.2,4.8-4.8,4.8s-4.8-2.2-4.8-4.8,2.2-4.8,4.8-4.8,4.8,2.2,4.8,4.8Z"/>
  <path class="cls-7" d="M648.6,104.2c0,2.7-2.2,4.8-4.8,4.8s-4.8-2.2-4.8-4.8,2.2-4.8,4.8-4.8,4.8,2.2,4.8,4.8Z"/>
  <path class="cls-8" d="M690.7,106.9c-.6-.4-1.3-.8-1.9-1.2-.5-.3-1-.6-1.5-.9-.3-.2-.4-.3-.2-.7.4-.7.8-1.3,1.2-2,.9-1.5,1.8-3,2.6-4.6.5-1,.6-2.9-.5-3.8-.6-.6-1.3-1.1-2.1-1.5-2-1-4.1-1.4-6.3-1.5-1.9,0-3.7.1-5.8.7-8,2.4-8.5,8.9-8.4,8.6l3.3,1.9s0,0,0,0c.3-.4.5-.8.9-1.2,1.7-2.1,3.9-3.4,6.5-4.1,1.9-.5,3.8-.5,5.7,0,.4.1.5.2.3.6-1,1.7-1.9,3.3-2.9,5-.8,1.4-.9,2.8-.3,4.2.5,1.2,1.4,2,2.5,2.6,1.3.7,2.6,1.5,4,2.3.5.3.7.7.5,1.2,0,.2-.2.4-.3.6-1.7,3-3.4,5.9-5.1,8.9,0,.2,0,.2,0,0l2.8,2.5c-.2.3,6.2-7,7.5-9.5,2.6-4.9-2.2-8.3-2.5-8.5Z"/>
  <path class="cls-8" d="M694.7,93.5c3.1,0,5.7-2.6,5.7-5.7,0-3.1-2.5-5.7-5.7-5.7-3.1,0-5.7,2.6-5.7,5.6,0,3.2,2.5,5.8,5.7,5.8Z"/>
  <path class="cls-8" d="M681.8,110.8l-.3-.3c0,0-.1,0-.2-.2,0,0-.1-.1-.2-.1l-2-1.7s0,0,0,0c-.2-.2-.5-.4-.7-.6-.3-.3-.5-.2-.7,0-2.8,3.3-5.6,6.6-8.4,9.9-.4.5-.8,1-1.4,1.3-3,1.3-6,2.5-9,3.8,0,0,0,0,0,0l1.8,3.4c-.1,0-.2,0-.3.1,0,0,0,0,.4,0,1.6-.2,7.8-1.4,10.7-2.7.2,0,.4-.2.6-.4,3.3-3.9,6.7-7.9,10-11.8,0,0,.1-.2.2-.3,0,0-.2-.2-.2-.3,0,0-.2-.1-.3-.2Z"/>
  <path class="cls-8" d="M707.9,95.7l-3.3-1.9s0,0,0,0c-1.3,1.9-3.1,2.9-5.4,3.1-1.4.1-2.7-.1-3.9-.8-.3-.1-.4-.1-.6.2,0,.1-.1.3-.2.4,0,0,0,0,0,0,0,.1-1.6,2.7-1.6,2.7,0,0,0,0-.1.2-.1.3-.3.6-.5.8-.2.3-.1.5.2.6,1.9,1,4,1.6,6.2,1.6,9.3,0,9.5-7.3,9.3-7Z"/>
  <path class="cls-7" d="M535.4,37.6c-34.4,0-62.4,28-62.4,62.4s28,62.4,62.4,62.4,62.4-28,62.4-62.4-28-62.4-62.4-62.4ZM535.4,148.9c-27,0-48.9-21.9-48.9-48.9s21.9-48.9,48.9-48.9,48.9,21.9,48.9,48.9-21.9,48.9-48.9,48.9Z"/>
  <path class="cls-12" d="M550.2,43.8c-2-.5-4-1-6.1-1.3M589.9,120c2.3-6.2,3.5-13,3.5-20,0-24.9-15.7-46.2-37.8-54.4"/>
  <path class="cls-9" d="M535.4,52.8c-26,0-47.2,21.2-47.2,47.2s21.2,47.2,47.2,47.2,47.2-21.2,47.2-47.2-21.2-47.2-47.2-47.2Z"/>
  <path class="cls-4" d="M484,61.6H161.6c-1,0-2,.3-2.9.7l-59.5,32.4c-1.9,1-3.1,3-3.1,5.2s1.2,4.2,3.1,5.2l59.5,32.4c.9.5,1.9.7,2.9.7h311.9c-7-11.2-11-24.3-11-38.4h1.7c0,14.1,4.2,27.3,11.3,38.4h8.4c-8-10.7-12.8-24-12.8-38.4s4.8-27.7,12.8-38.4Z"/>
  <path class="cls-4" d="M535.4,51.1c-27,0-48.9,21.9-48.9,48.9s21.9,48.9,48.9,48.9,48.9-21.9,48.9-48.9-21.9-48.9-48.9-48.9ZM535.4,147.2c-26,0-47.2-21.2-47.2-47.2s21.2-47.2,47.2-47.2,47.2,21.2,47.2,47.2-21.2,47.2-47.2,47.2Z"/>
  <path class="cls-4" d="M535.4,27.2v1.7c39.2,0,71.1,31.9,71.1,71.1h1.7c0-40.1-32.7-72.8-72.8-72.8Z"/>
  <circle class="cls-4" cx="535.4" cy="100" r="37.6"/>
  <path class="cls-7" d="M480.3,67.1H164.9c-1.1,0-2.3.3-3.3.8l-44.5,24.3h354.6c1.1-9.1,4.1-17.6,8.6-25.1Z"/>
  <path class="cls-8" d="M161.6,48.8h164c.5,0,.9-.4.9-.9s-.4-.9-.9-.9h-164c-.5,0-.9.4-.9.9s.4.9.9.9Z"/>
  <path class="cls-8" d="M462.7,151.2h-164c-.5,0-.9.4-.9.9s.4.9.9.9h164c.5,0,.9-.4.9-.9s-.4-.9-.9-.9Z"/>
  <path class="cls-8" d="M535.4,51.1c-27,0-48.9,21.9-48.9,48.9s21.9,48.9,48.9,48.9,48.9-21.9,48.9-48.9-21.9-48.9-48.9-48.9ZM535.4,147.2c-26,0-47.2-21.2-47.2-47.2s21.2-47.2,47.2-47.2,47.2,21.2,47.2,47.2-21.2,47.2-47.2,47.2Z"/>
  <path class="cls-8" d="M535.4,35.8c-20.2,0-38.2,9.4-50,24H161.6c-1.3,0-2.6.3-3.7.9l-59.5,32.4c-2.5,1.3-4,3.9-4,6.7s1.5,5.4,4,6.8l59.5,32.4c1.1.6,2.4.9,3.7.9h313c13,19.7,35.4,32.7,60.7,32.7v-1.7c-24.3,0-45.8-12.3-58.6-31h8.6c11.8,14.6,29.8,24,50,24,35.4,0,64.2-28.8,64.2-64.2s-28.8-64.2-64.2-64.2ZM475.6,138.4c-7.1-11.1-11.3-24.3-11.3-38.4h-1.7c0,14.1,4,27.2,11,38.4H161.6c-1,0-2-.3-2.9-.7l-59.5-32.4c-1.9-1-3.1-3.1-3.1-5.2s1.2-4.2,3.1-5.2l59.5-32.4c.9-.5,1.9-.7,2.9-.7h322.4c-8,10.7-12.8,24-12.8,38.4s4.8,27.7,12.8,38.4h-8.4ZM535.4,162.4c-34.4,0-62.4-28-62.4-62.4s28-62.4,62.4-62.4,62.4,28,62.4,62.4-28,62.4-62.4,62.4Z"/>
  <path class="cls-8" d="M535.4,27.2v1.7c39.2,0,71.1,31.9,71.1,71.1h1.7c0-40.1-32.7-72.8-72.8-72.8Z"/>
  <text class="cls-10" transform="translate(161.6 110.2)"><tspan x="0" y="0">Wondering how to enhance employer </tspan><tspan x="0" y="14.5">branding?</tspan></text>
  <text class="cls-11" transform="translate(511.1 111.2)"><tspan x="0" y="0">05</tspan></text>
  <text class="cls-2" transform="translate(322.7 87.3)"><tspan x="0" y="0">PROBLEM</tspan></text>
  <path class="cls-9" d="M831.6,147.2c26,0,47.2-21.2,47.2-47.2s-21.2-47.2-47.2-47.2-47.2,21.2-47.2,47.2,21.2,47.2,47.2,47.2Z"/>
  <path class="cls-5" d="M1267.7,94.8l-59.5-32.4c-.9-.5-1.9-.7-2.9-.7h-322.4c8,10.7,12.8,24,12.8,38.4s-4.8,27.7-12.8,38.4h8.4c7.1-11.1,11.3-24.3,11.3-38.4h1.7c0,14.1-4,27.2-11,38.4h311.9c1,0,2-.3,2.9-.7l59.5-32.4c1.9-1,3.1-3.1,3.1-5.2s-1.2-4.2-3.1-5.2Z"/>
  <circle class="cls-5" cx="831.6" cy="100" r="37.6"/>
  <path class="cls-6" d="M886.7,67.1h315.4c1.1,0,2.3.3,3.3.8l44.5,24.3h-354.6c-1.1-9.1-4.1-17.6-8.6-25.1Z"/>
  <path class="cls-6" d="M831.6,162.4c34.4,0,62.4-28,62.4-62.4s-28-62.4-62.4-62.4-62.4,28-62.4,62.4,28,62.4,62.4,62.4ZM831.6,51.1c27,0,48.9,21.9,48.9,48.9s-21.9,48.9-48.9,48.9-48.9-21.9-48.9-48.9,21.9-48.9,48.9-48.9Z"/>
  <path class="cls-3" d="M886.2,121.1c-.1,0-.3,0-.4,0-.6-.2-.9-.9-.7-1.4,2.3-6.3,3.5-12.9,3.5-19.6,0-23.6-14.9-45.1-37-53.4-.6-.2-.9-.9-.7-1.4.2-.6.9-.9,1.4-.7,23,8.6,38.5,30.9,38.5,55.5s-1.2,13.8-3.6,20.4c-.2.5-.6.7-1.1.7ZM846.5,44.9c0,0-.2,0-.3,0-2-.5-4-.9-6-1.2-.6,0-1-.7-.9-1.3,0-.6.7-1,1.3-.9,2.1.3,4.2.8,6.2,1.3.6.2,1,.8.8,1.4-.1.5-.6.8-1.1.8Z"/>
  <path class="cls-8" d="M831.6,28.9v-1.7c-40.1,0-72.8,32.7-72.8,72.8h1.7c0-39.2,31.9-71.1,71.1-71.1Z"/>
  <path class="cls-8" d="M831.6,51.1c-27,0-48.9,21.9-48.9,48.9s21.9,48.9,48.9,48.9,48.9-21.9,48.9-48.9-21.9-48.9-48.9-48.9ZM831.6,147.2c-26,0-47.2-21.2-47.2-47.2s21.2-47.2,47.2-47.2,47.2,21.2,47.2,47.2-21.2,47.2-47.2,47.2Z"/>
  <path class="cls-8" d="M1268.5,93.3l-59.5-32.4c-1.1-.6-2.4-.9-3.7-.9h-323.7c-11.8-14.6-29.8-24-50-24-35.4,0-64.2,28.8-64.2,64.2s28.8,64.2,64.2,64.2,38.2-9.4,50-24h8.6c-12.8,18.7-34.3,31-58.6,31v1.7c25.3,0,47.7-13,60.7-32.7h313c1.3,0,2.6-.3,3.7-.9l59.5-32.4c2.5-1.3,4-3.9,4-6.8s-1.5-5.4-4-6.7ZM831.6,162.4c-34.4,0-62.4-28-62.4-62.4s28-62.4,62.4-62.4,62.4,28,62.4,62.4-28,62.4-62.4,62.4ZM1267.7,105.2l-59.5,32.4c-.9.5-1.9.7-2.9.7h-311.9c7-11.2,11-24.3,11-38.4h-1.7c0,14.1-4.2,27.3-11.3,38.4h-8.4c8-10.7,12.8-24,12.8-38.4s-4.8-27.7-12.8-38.4h322.4c1,0,2,.3,2.9.7l59.5,32.4c1.9,1,3.1,3,3.1,5.2s-1.2,4.2-3.1,5.2Z"/>
  <path class="cls-8" d="M1041.4,48.8h164c.5,0,.9-.4.9-.9s-.4-.9-.9-.9h-164c-.5,0-.9.4-.9.9s.4.9.9.9Z"/>
  <path class="cls-8" d="M1068.3,151.2h-164c-.5,0-.9.4-.9.9s.4.9.9.9h164c.5,0,.9-.4.9-.9s-.4-.9-.9-.9Z"/>
  <g>
    <path class="cls-8" d="M923.4,110.3c-.7,0-1.3,0-1.9-.3-.6-.2-1.1-.4-1.4-.7l.5-1.2c.3.3.8.5,1.3.7.5.2,1,.3,1.5.3s.8,0,1.1-.1.5-.2.6-.4c.1-.2.2-.4.2-.6s0-.5-.3-.6-.4-.3-.7-.4-.6-.2-1-.3-.7-.2-1.1-.3c-.4-.1-.7-.3-1-.4-.3-.2-.5-.4-.7-.7-.2-.3-.3-.7-.3-1.1s.1-.9.4-1.3c.2-.4.6-.7,1.1-.9.5-.2,1.1-.3,1.9-.3s1,0,1.5.2c.5.1.9.3,1.3.6l-.5,1.2c-.4-.2-.8-.4-1.2-.5-.4-.1-.8-.2-1.2-.2s-.8,0-1.1.2c-.3.1-.5.2-.6.4-.1.2-.2.4-.2.6s0,.5.3.6.4.3.7.4.6.2,1,.3.7.2,1.1.3c.4.1.7.2,1,.4.3.2.5.4.7.7.2.3.3.7.3,1.1s-.1.9-.4,1.3c-.2.4-.6.7-1.1.9-.5.2-1.2.3-1.9.3Z"/>
    <path class="cls-8" d="M931.9,103.7c.5,0,1,.1,1.4.3.4.2.7.5,1,.9s.4,1,.4,1.6v3.7h-1.5v-3.5c0-.6-.1-1-.4-1.3-.3-.3-.6-.4-1.1-.4s-.7,0-.9.2-.5.4-.6.6c-.1.3-.2.6-.2,1.1v3.3h-1.5v-9h1.5v4.3l-.3-.5c.2-.4.6-.7,1-1,.4-.2.9-.3,1.5-.3Z"/>
    <path class="cls-8" d="M939.4,110.3c-.7,0-1.3-.1-1.8-.4-.5-.3-.9-.7-1.2-1.2-.3-.5-.4-1.1-.4-1.7s.1-1.2.4-1.7c.3-.5.7-.9,1.2-1.2.5-.3,1.1-.4,1.8-.4s1.3.1,1.8.4c.5.3.9.7,1.2,1.2s.4,1.1.4,1.7-.1,1.2-.4,1.7c-.3.5-.7.9-1.2,1.2-.5.3-1.1.4-1.8.4ZM939.4,109c.4,0,.7,0,1-.2.3-.2.5-.4.7-.7.2-.3.2-.7.2-1.1s0-.8-.2-1.1c-.2-.3-.4-.5-.7-.7-.3-.2-.6-.2-1-.2s-.7,0-1,.2c-.3.2-.5.4-.7.7-.2.3-.3.7-.3,1.1s0,.8.3,1.1c.2.3.4.5.7.7.3.2.6.2,1,.2Z"/>
    <path class="cls-8" d="M945.6,110.2l-2.4-6.5h1.4l2,5.7h-.7l2.1-5.7h1.3l2.1,5.7h-.7l2.1-5.7h1.3l-2.4,6.5h-1.5l-1.9-5h.4l-1.9,5h-1.5Z"/>
    <path class="cls-8" d="M958.1,110.3c-.7,0-1.3-.1-1.8-.4-.5-.3-.9-.7-1.2-1.2-.3-.5-.4-1.1-.4-1.7s.1-1.2.4-1.7c.3-.5.7-.9,1.2-1.2.5-.3,1.1-.4,1.8-.4s1.2.1,1.7.4c.5.3.8.6,1.1,1.1l-1.2.7c-.2-.3-.4-.5-.7-.7s-.6-.2-.9-.2-.7,0-1,.2c-.3.2-.5.4-.7.7-.2.3-.3.7-.3,1.1s0,.8.3,1.1c.2.3.4.5.7.7.3.2.6.2,1,.2s.6,0,.9-.2.5-.4.7-.7l1.2.7c-.3.5-.6.9-1.1,1.1-.5.3-1,.4-1.7.4Z"/>
    <path class="cls-8" d="M964.1,110.3c-.5,0-.9,0-1.3-.2-.4-.2-.6-.4-.8-.7-.2-.3-.3-.6-.3-1s0-.7.3-1c.2-.3.5-.5.9-.7.4-.2.9-.3,1.6-.3h1.9v1h-1.8c-.5,0-.9,0-1,.2-.2.2-.3.4-.3.6s.1.5.3.7c.2.2.5.2.9.2s.7,0,1-.3c.3-.2.5-.4.6-.8l.3.9c-.1.4-.4.7-.8.9-.4.2-.8.3-1.4.3ZM966.1,110.2v-1.6c0,0,0-2.3,0-2.3,0-.4-.1-.8-.4-1s-.7-.4-1.2-.4-.7,0-1.1.2c-.4.1-.6.3-.9.5l-.6-1.1c.3-.3.8-.5,1.2-.6s1-.2,1.5-.2c.9,0,1.7.2,2.2.7.5.4.8,1.1.8,2.1v3.8h-1.4Z"/>
    <path class="cls-8" d="M971.5,110.3c-.5,0-1.1,0-1.6-.2-.5-.1-.9-.3-1.2-.5l.6-1.2c.3.2.6.3,1,.5.4.1.8.2,1.2.2s.8,0,1-.2.3-.3.3-.5,0-.3-.2-.4c-.1,0-.3-.2-.6-.2-.2,0-.5,0-.8-.1-.3,0-.6,0-.9-.2-.3,0-.5-.2-.8-.3-.2-.1-.4-.3-.6-.5-.1-.2-.2-.5-.2-.9s.1-.8.4-1.1c.2-.3.6-.5,1-.7.4-.2.9-.2,1.5-.2s.9,0,1.3.1.8.2,1.1.4l-.6,1.2c-.3-.2-.6-.3-.9-.4-.3,0-.6-.1-.9-.1-.5,0-.8,0-1,.2-.2.1-.3.3-.3.5s0,.3.2.4c.1,0,.3.2.6.2.2,0,.5.1.8.1.3,0,.6,0,.9.2.3,0,.5.2.8.3.2.1.4.3.6.5.1.2.2.5.2.9s-.1.8-.4,1.1c-.2.3-.6.5-1,.7-.4.2-1,.2-1.6.2Z"/>
    <path class="cls-8" d="M978.8,110.3c-.7,0-1.3-.1-1.9-.4-.5-.3-1-.7-1.2-1.2-.3-.5-.4-1.1-.4-1.7s.1-1.2.4-1.7c.3-.5.7-.9,1.2-1.2.5-.3,1.1-.4,1.7-.4s1.2.1,1.7.4.9.7,1.2,1.2c.3.5.4,1.1.4,1.8s0,.1,0,.2c0,0,0,.2,0,.2h-5.4v-1h4.6l-.6.3c0-.4,0-.7-.2-1-.2-.3-.4-.5-.7-.7-.3-.2-.6-.2-1-.2s-.7,0-1,.2c-.3.2-.5.4-.7.7-.2.3-.2.6-.2,1v.2c0,.4,0,.7.3,1,.2.3.4.5.8.7.3.2.7.2,1.1.2s.7,0,1-.2c.3-.1.5-.3.8-.5l.8.9c-.3.3-.7.6-1.1.8-.4.2-.9.3-1.5.3Z"/>
    <path class="cls-8" d="M987.1,112.6c-.3,0-.6,0-.9-.2-.3-.1-.6-.2-.8-.4l.6-1.1c.2.1.3.2.5.3.2,0,.4.1.6.1s.5,0,.7-.2c.2-.1.3-.4.5-.7l.4-.8v-.2c.1,0,2.6-5.7,2.6-5.7h1.5l-3,7c-.2.5-.4.9-.7,1.2s-.5.5-.8.6c-.3.1-.6.2-1,.2ZM988.5,110.4l-2.9-6.7h1.6l2.4,5.6-1,1.1Z"/>
    <path class="cls-8" d="M996.3,110.3c-.7,0-1.3-.1-1.8-.4-.5-.3-.9-.7-1.2-1.2-.3-.5-.4-1.1-.4-1.7s.1-1.2.4-1.7c.3-.5.7-.9,1.2-1.2.5-.3,1.1-.4,1.8-.4s1.3.1,1.8.4c.5.3.9.7,1.2,1.2s.4,1.1.4,1.7-.1,1.2-.4,1.7c-.3.5-.7.9-1.2,1.2-.5.3-1.1.4-1.8.4ZM996.3,109c.4,0,.7,0,1-.2.3-.2.5-.4.7-.7.2-.3.2-.7.2-1.1s0-.8-.2-1.1c-.2-.3-.4-.5-.7-.7-.3-.2-.6-.2-1-.2s-.7,0-1,.2c-.3.2-.5.4-.7.7-.2.3-.3.7-.3,1.1s0,.8.3,1.1c.2.3.4.5.7.7.3.2.6.2,1,.2Z"/>
    <path class="cls-8" d="M1004,110.3c-.5,0-1-.1-1.5-.3-.4-.2-.7-.5-1-.9-.2-.4-.4-1-.4-1.6v-3.7h1.5v3.5c0,.6.1,1,.4,1.3.3.3.6.4,1.1.4s.7,0,.9-.2c.3-.1.5-.4.6-.7.1-.3.2-.6.2-1.1v-3.3h1.5v6.5h-1.4v-1.7l.3.5c-.2.4-.5.7-1,1-.4.2-.9.3-1.4.3Z"/>
    <path class="cls-8" d="M1009.5,110.2v-6.5h1.4v1.8l-.2-.5c.2-.4.5-.8.9-1,.4-.2.9-.3,1.6-.3v1.4c0,0-.1,0-.2,0s-.1,0-.2,0c-.6,0-1,.2-1.4.5-.3.3-.5.8-.5,1.5v3.1h-1.5Z"/>
    <path class="cls-8" d="M1020.9,110.3c-.7,0-1.3-.1-1.8-.4-.5-.3-.9-.7-1.2-1.2-.3-.5-.4-1.1-.4-1.7s.1-1.2.4-1.7c.3-.5.7-.9,1.2-1.2.5-.3,1.1-.4,1.8-.4s1.2.1,1.7.4c.5.3.8.6,1.1,1.1l-1.2.7c-.2-.3-.4-.5-.7-.7s-.6-.2-.9-.2-.7,0-1,.2c-.3.2-.5.4-.7.7-.2.3-.3.7-.3,1.1s0,.8.3,1.1c.2.3.4.5.7.7.3.2.6.2,1,.2s.6,0,.9-.2.5-.4.7-.7l1.2.7c-.3.5-.6.9-1.1,1.1-.5.3-1,.4-1.7.4Z"/>
    <path class="cls-8" d="M1027.7,110.3c-.7,0-1.3-.1-1.8-.4-.5-.3-.9-.7-1.2-1.2-.3-.5-.4-1.1-.4-1.7s.1-1.2.4-1.7c.3-.5.7-.9,1.2-1.2.5-.3,1.1-.4,1.8-.4s1.3.1,1.8.4c.5.3.9.7,1.2,1.2s.4,1.1.4,1.7-.1,1.2-.4,1.7c-.3.5-.7.9-1.2,1.2-.5.3-1.1.4-1.8.4ZM1027.7,109c.4,0,.7,0,1-.2.3-.2.5-.4.7-.7.2-.3.2-.7.2-1.1s0-.8-.2-1.1c-.2-.3-.4-.5-.7-.7-.3-.2-.6-.2-1-.2s-.7,0-1,.2c-.3.2-.5.4-.7.7-.2.3-.3.7-.3,1.1s0,.8.3,1.1c.2.3.4.5.7.7.3.2.6.2,1,.2Z"/>
    <path class="cls-8" d="M1040.8,103.7c.5,0,1,.1,1.4.3.4.2.7.5.9.9.2.4.3,1,.3,1.6v3.7h-1.5v-3.5c0-.6-.1-1-.4-1.3s-.6-.4-1.1-.4-.6,0-.9.2c-.3.1-.5.4-.6.6-.1.3-.2.6-.2,1.1v3.3h-1.5v-3.5c0-.6-.1-1-.4-1.3-.3-.3-.6-.4-1.1-.4s-.6,0-.9.2c-.3.1-.5.4-.6.6-.1.3-.2.6-.2,1.1v3.3h-1.5v-6.5h1.4v1.7l-.3-.5c.2-.4.5-.7,1-1s.9-.3,1.4-.3,1.1.1,1.6.4c.4.3.7.8.9,1.4l-.6-.2c.2-.5.6-.9,1-1.2.5-.3,1-.4,1.7-.4Z"/>
    <path class="cls-8" d="M1045.4,112.5v-8.8h1.4v3.2s0,1.7,0,1.7v3.9h-1.5ZM1049,110.3c-.5,0-1-.1-1.4-.4-.4-.2-.8-.6-1-1.1-.3-.5-.4-1.1-.4-1.9s.1-1.4.4-1.9.6-.8,1-1.1c.4-.2.9-.4,1.5-.4s1.2.1,1.7.4c.5.3.9.7,1.2,1.2s.4,1.1.4,1.7-.1,1.3-.4,1.8-.7.9-1.2,1.2c-.5.3-1.1.4-1.7.4ZM1048.8,109c.4,0,.7,0,1-.2.3-.2.5-.4.7-.7.2-.3.3-.7.3-1.1s0-.8-.3-1.1c-.2-.3-.4-.5-.7-.7-.3-.2-.6-.2-1-.2s-.7,0-1,.2c-.3.2-.5.4-.7.7-.2.3-.3.7-.3,1.1s0,.8.3,1.1c.2.3.4.5.7.7.3.2.6.2,1,.2Z"/>
    <path class="cls-8" d="M1055.6,110.3c-.5,0-.9,0-1.3-.2-.4-.2-.6-.4-.8-.7-.2-.3-.3-.6-.3-1s0-.7.3-1c.2-.3.5-.5.9-.7.4-.2.9-.3,1.6-.3h1.9v1h-1.8c-.5,0-.9,0-1,.2-.2.2-.3.4-.3.6s.1.5.3.7c.2.2.5.2.9.2s.7,0,1-.3c.3-.2.5-.4.6-.8l.3.9c-.1.4-.4.7-.8.9-.4.2-.8.3-1.4.3ZM1057.6,110.2v-1.6c0,0,0-2.3,0-2.3,0-.4-.1-.8-.4-1s-.7-.4-1.2-.4-.7,0-1.1.2c-.4.1-.6.3-.9.5l-.6-1.1c.3-.3.8-.5,1.2-.6s1-.2,1.5-.2c.9,0,1.7.2,2.2.7.5.4.8,1.1.8,2.1v3.8h-1.4Z"/>
    <path class="cls-8" d="M1064.6,103.7c.5,0,1,.1,1.4.3.4.2.7.5,1,.9s.4,1,.4,1.6v3.7h-1.5v-3.5c0-.6-.1-1-.4-1.3-.3-.3-.6-.4-1.1-.4s-.7,0-.9.2-.5.4-.6.6c-.1.3-.2.6-.2,1.1v3.3h-1.5v-6.5h1.4v1.7l-.3-.5c.2-.4.6-.7,1-1,.4-.2.9-.3,1.5-.3Z"/>
    <path class="cls-8" d="M1069.7,112.6c-.3,0-.6,0-.9-.2-.3-.1-.6-.2-.8-.4l.6-1.1c.2.1.3.2.5.3.2,0,.4.1.6.1s.5,0,.7-.2c.2-.1.3-.4.5-.7l.4-.8v-.2c.1,0,2.6-5.7,2.6-5.7h1.5l-3,7c-.2.5-.4.9-.7,1.2s-.5.5-.8.6c-.3.1-.6.2-1,.2ZM1071,110.4l-2.9-6.7h1.6l2.4,5.6-1,1.1Z"/>
    <path class="cls-8" d="M1082.5,110.3c-.7,0-1.3-.1-1.8-.4-.5-.3-.9-.7-1.2-1.2-.3-.5-.4-1.1-.4-1.7s.1-1.2.4-1.7c.3-.5.7-.9,1.2-1.2.5-.3,1.1-.4,1.8-.4s1.2.1,1.7.4c.5.3.8.6,1.1,1.1l-1.2.7c-.2-.3-.4-.5-.7-.7s-.6-.2-.9-.2-.7,0-1,.2c-.3.2-.5.4-.7.7-.2.3-.3.7-.3,1.1s0,.8.3,1.1c.2.3.4.5.7.7.3.2.6.2,1,.2s.6,0,.9-.2.5-.4.7-.7l1.2.7c-.3.5-.6.9-1.1,1.1-.5.3-1,.4-1.7.4Z"/>
    <path class="cls-8" d="M1089.3,110.3c-.5,0-1-.1-1.5-.3-.4-.2-.7-.5-1-.9-.2-.4-.4-1-.4-1.6v-3.7h1.5v3.5c0,.6.1,1,.4,1.3.3.3.6.4,1.1.4s.7,0,.9-.2c.3-.1.5-.4.6-.7.1-.3.2-.6.2-1.1v-3.3h1.5v6.5h-1.4v-1.7l.3.5c-.2.4-.5.7-1,1-.4.2-.9.3-1.4.3Z"/>
    <path class="cls-8" d="M1094.8,110.2v-9h1.5v9h-1.5Z"/>
    <path class="cls-8" d="M1097.7,105v-1.2h4.3v1.2h-4.3ZM1101,110.3c-.7,0-1.3-.2-1.6-.6-.4-.4-.6-.9-.6-1.6v-5.8h1.5v5.8c0,.3,0,.5.2.7.2.2.4.3.7.3s.6,0,.8-.3l.4,1.1c-.2.1-.4.3-.7.3-.3,0-.5.1-.8.1Z"/>
    <path class="cls-8" d="M1106.4,110.3c-.5,0-1-.1-1.5-.3-.4-.2-.7-.5-1-.9-.2-.4-.4-1-.4-1.6v-3.7h1.5v3.5c0,.6.1,1,.4,1.3.3.3.6.4,1.1.4s.7,0,.9-.2c.3-.1.5-.4.6-.7.1-.3.2-.6.2-1.1v-3.3h1.5v6.5h-1.4v-1.7l.3.5c-.2.4-.5.7-1,1-.4.2-.9.3-1.4.3Z"/>
    <path class="cls-8" d="M1112,110.2v-6.5h1.4v1.8l-.2-.5c.2-.4.5-.8.9-1,.4-.2.9-.3,1.6-.3v1.4c0,0-.1,0-.2,0s-.1,0-.2,0c-.6,0-1,.2-1.4.5-.3.3-.5.8-.5,1.5v3.1h-1.5Z"/>
    <path class="cls-8" d="M1120,110.3c-.7,0-1.3-.1-1.9-.4-.5-.3-1-.7-1.2-1.2-.3-.5-.4-1.1-.4-1.7s.1-1.2.4-1.7c.3-.5.7-.9,1.2-1.2.5-.3,1.1-.4,1.7-.4s1.2.1,1.7.4.9.7,1.2,1.2c.3.5.4,1.1.4,1.8s0,.1,0,.2c0,0,0,.2,0,.2h-5.4v-1h4.6l-.6.3c0-.4,0-.7-.2-1-.2-.3-.4-.5-.7-.7-.3-.2-.6-.2-1-.2s-.7,0-1,.2c-.3.2-.5.4-.7.7-.2.3-.2.6-.2,1v.2c0,.4,0,.7.3,1,.2.3.4.5.8.7.3.2.7.2,1.1.2s.7,0,1-.2c.3-.1.5-.3.8-.5l.8.9c-.3.3-.7.6-1.1.8-.4.2-.9.3-1.5.3Z"/>
    <path class="cls-8" d="M1129.2,110.2l-2.4-6.5h1.4l2,5.7h-.7l2.1-5.7h1.3l2.1,5.7h-.7l2.1-5.7h1.3l-2.4,6.5h-1.5l-1.9-5h.4l-1.9,5h-1.5Z"/>
    <path class="cls-8" d="M1139.7,102.7c-.3,0-.5,0-.7-.3s-.3-.4-.3-.6,0-.5.3-.6c.2-.2.4-.3.7-.3s.5,0,.7.2.3.4.3.6,0,.5-.3.7-.4.3-.7.3ZM1138.9,110.2v-6.5h1.5v6.5h-1.5Z"/>
    <path class="cls-8" d="M1141.6,105v-1.2h4.3v1.2h-4.3ZM1144.9,110.3c-.7,0-1.3-.2-1.6-.6-.4-.4-.6-.9-.6-1.6v-5.8h1.5v5.8c0,.3,0,.5.2.7.2.2.4.3.7.3s.6,0,.8-.3l.4,1.1c-.2.1-.4.3-.7.3-.3,0-.5.1-.8.1Z"/>
    <path class="cls-8" d="M1151.2,103.7c.5,0,1,.1,1.4.3.4.2.7.5,1,.9s.4,1,.4,1.6v3.7h-1.5v-3.5c0-.6-.1-1-.4-1.3-.3-.3-.6-.4-1.1-.4s-.7,0-.9.2-.5.4-.6.6c-.1.3-.2.6-.2,1.1v3.3h-1.5v-9h1.5v4.3l-.3-.5c.2-.4.6-.7,1-1,.4-.2.9-.3,1.5-.3Z"/>
    <path class="cls-8" d="M1161.1,110.3c-.5,0-.9,0-1.3-.2-.4-.2-.6-.4-.8-.7-.2-.3-.3-.6-.3-1s0-.7.3-1c.2-.3.5-.5.9-.7.4-.2.9-.3,1.6-.3h1.9v1h-1.8c-.5,0-.9,0-1,.2-.2.2-.3.4-.3.6s.1.5.3.7c.2.2.5.2.9.2s.7,0,1-.3c.3-.2.5-.4.6-.8l.3.9c-.1.4-.4.7-.8.9-.4.2-.8.3-1.4.3ZM1163.2,110.2v-1.6c0,0,0-2.3,0-2.3,0-.4-.1-.8-.4-1s-.7-.4-1.2-.4-.7,0-1.1.2c-.4.1-.6.3-.9.5l-.6-1.1c.3-.3.8-.5,1.2-.6s1-.2,1.5-.2c.9,0,1.7.2,2.2.7.5.4.8,1.1.8,2.1v3.8h-1.4Z"/>
    <path class="cls-8" d="M1172.6,110.3c-.6,0-1.2-.1-1.7-.4-.5-.3-.9-.7-1.2-1.2s-.4-1.1-.4-1.7.1-1.3.4-1.7.7-.9,1.2-1.2c.5-.3,1.1-.4,1.7-.4s1,.1,1.5.4.8.6,1,1.1c.2.5.4,1.1.4,1.9s-.1,1.4-.4,1.9-.6.9-1,1.1-.9.4-1.5.4ZM1172.8,109c.4,0,.7,0,1-.2.3-.2.5-.4.7-.7s.3-.7.3-1.1,0-.8-.3-1.1-.4-.5-.7-.7c-.3-.2-.6-.2-1-.2s-.7,0-1,.2c-.3.2-.5.4-.7.7s-.3.7-.3,1.1,0,.8.3,1.1.4.5.7.7c.3.2.6.2,1,.2ZM1174.8,110.2v-3.2c0,0,0-1.7,0-1.7v-4h1.5v9h-1.4Z"/>
    <path class="cls-8" d="M1181.2,110.3c-.7,0-1.3-.1-1.9-.4-.5-.3-1-.7-1.2-1.2-.3-.5-.4-1.1-.4-1.7s.1-1.2.4-1.7c.3-.5.7-.9,1.2-1.2.5-.3,1.1-.4,1.7-.4s1.2.1,1.7.4.9.7,1.2,1.2c.3.5.4,1.1.4,1.8s0,.1,0,.2c0,0,0,.2,0,.2h-5.4v-1h4.6l-.6.3c0-.4,0-.7-.2-1-.2-.3-.4-.5-.7-.7-.3-.2-.6-.2-1-.2s-.7,0-1,.2c-.3.2-.5.4-.7.7-.2.3-.2.6-.2,1v.2c0,.4,0,.7.3,1,.2.3.4.5.8.7.3.2.7.2,1.1.2s.7,0,1-.2c.3-.1.5-.3.8-.5l.8.9c-.3.3-.7.6-1.1.8-.4.2-.9.3-1.5.3Z"/>
    <path class="cls-8" d="M1188.5,110.3c-.6,0-1.2-.1-1.7-.4-.5-.3-.9-.7-1.2-1.2s-.4-1.1-.4-1.7.1-1.3.4-1.7.7-.9,1.2-1.2c.5-.3,1.1-.4,1.7-.4s1,.1,1.5.4.8.6,1,1.1c.2.5.4,1.1.4,1.9s-.1,1.4-.4,1.9-.6.9-1,1.1-.9.4-1.5.4ZM1188.7,109c.4,0,.7,0,1-.2.3-.2.5-.4.7-.7s.3-.7.3-1.1,0-.8-.3-1.1-.4-.5-.7-.7c-.3-.2-.6-.2-1-.2s-.7,0-1,.2c-.3.2-.5.4-.7.7s-.3.7-.3,1.1,0,.8.3,1.1.4.5.7.7c.3.2.6.2,1,.2ZM1190.6,110.2v-3.2c0,0,0-1.7,0-1.7v-4h1.5v9h-1.4Z"/>
    <path class="cls-8" d="M1194.8,102.7c-.3,0-.5,0-.7-.3s-.3-.4-.3-.6,0-.5.3-.6c.2-.2.4-.3.7-.3s.5,0,.7.2.3.4.3.6,0,.5-.3.7-.4.3-.7.3ZM1194.1,110.2v-6.5h1.5v6.5h-1.5Z"/>
    <path class="cls-8" d="M1197.2,107.5v-1.3h3.3v1.3h-3.3Z"/>
    <path class="cls-8" d="M923.6,124.8c-.7,0-1.3-.1-1.8-.4-.5-.3-.9-.7-1.2-1.2-.3-.5-.4-1.1-.4-1.7s.1-1.2.4-1.7c.3-.5.7-.9,1.2-1.2.5-.3,1.1-.4,1.8-.4s1.2.1,1.7.4c.5.3.8.6,1.1,1.1l-1.2.7c-.2-.3-.4-.5-.7-.7s-.6-.2-.9-.2-.7,0-1,.2c-.3.2-.5.4-.7.7-.2.3-.3.7-.3,1.1s0,.8.3,1.1c.2.3.4.5.7.7.3.2.6.2,1,.2s.6,0,.9-.2.5-.4.7-.7l1.2.7c-.3.5-.6.9-1.1,1.1-.5.3-1,.4-1.7.4Z"/>
    <path class="cls-8" d="M929.6,124.8c-.5,0-.9,0-1.3-.2-.4-.2-.6-.4-.8-.7-.2-.3-.3-.6-.3-1s0-.7.3-1c.2-.3.5-.5.9-.7.4-.2.9-.3,1.6-.3h1.9v1h-1.8c-.5,0-.9,0-1,.2-.2.2-.3.4-.3.6s.1.5.3.7c.2.2.5.2.9.2s.7,0,1-.3c.3-.2.5-.4.6-.8l.3.9c-.1.4-.4.7-.8.9-.4.2-.8.3-1.4.3ZM931.6,124.7v-1.6c0,0,0-2.3,0-2.3,0-.4-.1-.8-.4-1s-.7-.4-1.2-.4-.7,0-1.1.2c-.4.1-.6.3-.9.5l-.6-1.1c.3-.3.8-.5,1.2-.6s1-.2,1.5-.2c.9,0,1.7.2,2.2.7.5.4.8,1.1.8,2.1v3.8h-1.4Z"/>
    <path class="cls-8" d="M934.1,119.5v-1.2h4.3v1.2h-4.3ZM937.4,124.8c-.7,0-1.3-.2-1.6-.6-.4-.4-.6-.9-.6-1.6v-5.8h1.5v5.8c0,.3,0,.5.2.7.2.2.4.3.7.3s.6,0,.8-.3l.4,1.1c-.2.1-.4.3-.7.3-.3,0-.5.1-.8.1Z"/>
    <path class="cls-8" d="M942.9,124.8c-.7,0-1.3-.1-1.9-.4-.5-.3-1-.7-1.2-1.2-.3-.5-.4-1.1-.4-1.7s.1-1.2.4-1.7c.3-.5.7-.9,1.2-1.2.5-.3,1.1-.4,1.7-.4s1.2.1,1.7.4.9.7,1.2,1.2c.3.5.4,1.1.4,1.8s0,.1,0,.2c0,0,0,.2,0,.2h-5.4v-1h4.6l-.6.3c0-.4,0-.7-.2-1-.2-.3-.4-.5-.7-.7-.3-.2-.6-.2-1-.2s-.7,0-1,.2c-.3.2-.5.4-.7.7-.2.3-.2.6-.2,1v.2c0,.4,0,.7.3,1,.2.3.4.5.8.7.3.2.7.2,1.1.2s.7,0,1-.2c.3-.1.5-.3.8-.5l.8.9c-.3.3-.7.6-1.1.8-.4.2-.9.3-1.5.3Z"/>
    <path class="cls-8" d="M950.2,124.8c-.6,0-1.2-.1-1.7-.4-.5-.3-.9-.7-1.2-1.2s-.4-1.1-.4-1.7.1-1.3.4-1.7.7-.9,1.2-1.2c.5-.3,1.1-.4,1.7-.4s1,.1,1.5.4.8.6,1,1.1c.2.5.4,1.1.4,1.9s-.1,1.4-.4,1.9-.6.9-1,1.1-.9.4-1.5.4ZM950.4,123.5c.4,0,.7,0,1-.2.3-.2.5-.4.7-.7s.3-.7.3-1.1,0-.8-.3-1.1-.4-.5-.7-.7c-.3-.2-.6-.2-1-.2s-.7,0-1,.2c-.3.2-.5.4-.7.7s-.3.7-.3,1.1,0,.8.3,1.1.4.5.7.7c.3.2.6.2,1,.2ZM952.3,124.7v-3.2c0,0,0-1.7,0-1.7v-4h1.5v9h-1.4Z"/>
    <path class="cls-8" d="M959.1,127.1v-8.8h1.4v3.2s0,1.7,0,1.7v3.9h-1.5ZM962.7,124.8c-.5,0-1-.1-1.4-.4-.4-.2-.8-.6-1-1.1-.3-.5-.4-1.1-.4-1.9s.1-1.4.4-1.9.6-.8,1-1.1c.4-.2.9-.4,1.5-.4s1.2.1,1.7.4c.5.3.9.7,1.2,1.2s.4,1.1.4,1.7-.1,1.3-.4,1.8-.7.9-1.2,1.2c-.5.3-1.1.4-1.7.4ZM962.5,123.5c.4,0,.7,0,1-.2.3-.2.5-.4.7-.7.2-.3.3-.7.3-1.1s0-.8-.3-1.1c-.2-.3-.4-.5-.7-.7-.3-.2-.6-.2-1-.2s-.7,0-1,.2c-.3.2-.5.4-.7.7-.2.3-.3.7-.3,1.1s0,.8.3,1.1c.2.3.4.5.7.7.3.2.6.2,1,.2Z"/>
    <path class="cls-8" d="M967.4,124.7v-6.5h1.4v1.8l-.2-.5c.2-.4.5-.8.9-1,.4-.2.9-.3,1.6-.3v1.4c0,0-.1,0-.2,0s-.1,0-.2,0c-.6,0-1,.2-1.4.5-.3.3-.5.8-.5,1.5v3.1h-1.5Z"/>
    <path class="cls-8" d="M975.3,124.8c-.7,0-1.3-.1-1.8-.4-.5-.3-.9-.7-1.2-1.2-.3-.5-.4-1.1-.4-1.7s.1-1.2.4-1.7c.3-.5.7-.9,1.2-1.2.5-.3,1.1-.4,1.8-.4s1.3.1,1.8.4c.5.3.9.7,1.2,1.2s.4,1.1.4,1.7-.1,1.2-.4,1.7c-.3.5-.7.9-1.2,1.2-.5.3-1.1.4-1.8.4ZM975.3,123.5c.4,0,.7,0,1-.2.3-.2.5-.4.7-.7.2-.3.2-.7.2-1.1s0-.8-.2-1.1c-.2-.3-.4-.5-.7-.7-.3-.2-.6-.2-1-.2s-.7,0-1,.2c-.3.2-.5.4-.7.7-.2.3-.3.7-.3,1.1s0,.8.3,1.1c.2.3.4.5.7.7.3.2.6.2,1,.2Z"/>
    <path class="cls-8" d="M979.3,119.5v-1.2h4.3v1.2h-4.3ZM980.4,124.7v-6.8c0-.7.2-1.2.6-1.6.4-.4,1-.6,1.7-.6s.5,0,.8,0,.4.1.6.3l-.4,1.1c-.1,0-.2-.2-.4-.2-.1,0-.3,0-.4,0-.3,0-.6,0-.7.3-.2.2-.2.4-.2.8v1.4s0,5.4,0,5.4h-1.5ZM985.5,117.2c-.3,0-.5,0-.7-.3s-.3-.4-.3-.6,0-.5.3-.6c.2-.2.4-.3.7-.3s.5,0,.7.2.3.4.3.6,0,.5-.3.7-.4.3-.7.3ZM984.7,124.7v-6.5h1.5v6.5h-1.5Z"/>
    <path class="cls-8" d="M988.2,124.7v-9h1.5v9h-1.5Z"/>
    <path class="cls-8" d="M994.7,124.8c-.7,0-1.3-.1-1.9-.4-.5-.3-1-.7-1.2-1.2-.3-.5-.4-1.1-.4-1.7s.1-1.2.4-1.7c.3-.5.7-.9,1.2-1.2.5-.3,1.1-.4,1.7-.4s1.2.1,1.7.4.9.7,1.2,1.2c.3.5.4,1.1.4,1.8s0,.1,0,.2c0,0,0,.2,0,.2h-5.4v-1h4.6l-.6.3c0-.4,0-.7-.2-1-.2-.3-.4-.5-.7-.7-.3-.2-.6-.2-1-.2s-.7,0-1,.2c-.3.2-.5.4-.7.7-.2.3-.2.6-.2,1v.2c0,.4,0,.7.3,1,.2.3.4.5.8.7.3.2.7.2,1.1.2s.7,0,1-.2c.3-.1.5-.3.8-.5l.8.9c-.3.3-.7.6-1.1.8-.4.2-.9.3-1.5.3Z"/>
    <path class="cls-8" d="M1002.6,127.1v-8.8h1.4v3.2s0,1.7,0,1.7v3.9h-1.5ZM1006.2,124.8c-.5,0-1-.1-1.4-.4-.4-.2-.8-.6-1-1.1-.3-.5-.4-1.1-.4-1.9s.1-1.4.4-1.9.6-.8,1-1.1c.4-.2.9-.4,1.5-.4s1.2.1,1.7.4c.5.3.9.7,1.2,1.2s.4,1.1.4,1.7-.1,1.3-.4,1.8-.7.9-1.2,1.2c-.5.3-1.1.4-1.7.4ZM1006,123.5c.4,0,.7,0,1-.2.3-.2.5-.4.7-.7.2-.3.3-.7.3-1.1s0-.8-.3-1.1c-.2-.3-.4-.5-.7-.7-.3-.2-.6-.2-1-.2s-.7,0-1,.2c-.3.2-.5.4-.7.7-.2.3-.3.7-.3,1.1s0,.8.3,1.1c.2.3.4.5.7.7.3.2.6.2,1,.2Z"/>
    <path class="cls-8" d="M1012.7,124.8c-.5,0-.9,0-1.3-.2-.4-.2-.6-.4-.8-.7-.2-.3-.3-.6-.3-1s0-.7.3-1c.2-.3.5-.5.9-.7.4-.2.9-.3,1.6-.3h1.9v1h-1.8c-.5,0-.9,0-1,.2-.2.2-.3.4-.3.6s.1.5.3.7c.2.2.5.2.9.2s.7,0,1-.3c.3-.2.5-.4.6-.8l.3.9c-.1.4-.4.7-.8.9-.4.2-.8.3-1.4.3ZM1014.8,124.7v-1.6c0,0,0-2.3,0-2.3,0-.4-.1-.8-.4-1s-.7-.4-1.2-.4-.7,0-1.1.2c-.4.1-.6.3-.9.5l-.6-1.1c.3-.3.8-.5,1.2-.6s1-.2,1.5-.2c.9,0,1.7.2,2.2.7.5.4.8,1.1.8,2.1v3.8h-1.4Z"/>
    <path class="cls-8" d="M1020.9,124.4c-.6,0-1.2-.1-1.7-.4-.5-.3-.9-.6-1.2-1.1-.3-.5-.4-1-.4-1.6s.1-1.2.4-1.6c.3-.5.7-.8,1.2-1.1.5-.3,1.1-.4,1.7-.4s1,.1,1.5.3c.4.2.8.6,1,1,.3.5.4,1,.4,1.8s-.1,1.3-.4,1.8c-.3.5-.6.8-1,1-.4.2-.9.3-1.5.3ZM1021.1,127.2c-.6,0-1.2,0-1.7-.2-.6-.2-1-.4-1.4-.7l.7-1.1c.3.2.6.4,1.1.6.4.1.9.2,1.3.2.7,0,1.2-.2,1.6-.5s.5-.8.5-1.5v-2.6c.1,0,0-1.5,0-1.5v-1.6h1.4v5.5c0,1.2-.3,2-.9,2.6s-1.5.8-2.6.8ZM1021.1,123.1c.4,0,.7,0,1-.2s.5-.4.7-.7.2-.6.2-1,0-.7-.2-1-.4-.5-.7-.6-.6-.2-1-.2-.7,0-1,.2-.5.4-.7.6c-.2.3-.2.6-.2,1s0,.7.2,1c.2.3.4.5.7.7s.6.2,1,.2Z"/>
    <path class="cls-8" d="M1029.6,124.8c-.7,0-1.3-.1-1.9-.4-.5-.3-1-.7-1.2-1.2-.3-.5-.4-1.1-.4-1.7s.1-1.2.4-1.7c.3-.5.7-.9,1.2-1.2.5-.3,1.1-.4,1.7-.4s1.2.1,1.7.4.9.7,1.2,1.2c.3.5.4,1.1.4,1.8s0,.1,0,.2c0,0,0,.2,0,.2h-5.4v-1h4.6l-.6.3c0-.4,0-.7-.2-1-.2-.3-.4-.5-.7-.7-.3-.2-.6-.2-1-.2s-.7,0-1,.2c-.3.2-.5.4-.7.7-.2.3-.2.6-.2,1v.2c0,.4,0,.7.3,1,.2.3.4.5.8.7.3.2.7.2,1.1.2s.7,0,1-.2c.3-.1.5-.3.8-.5l.8.9c-.3.3-.7.6-1.1.8-.4.2-.9.3-1.5.3Z"/>
    <path class="cls-8" d="M1040,124.8c-.6,0-1.1,0-1.6-.3-.5-.2-.8-.5-1.1-.8-.3-.3-.4-.7-.4-1.2s0-.8.3-1.1c.2-.3.5-.6.8-.9s.9-.6,1.5-.9c.5-.2.8-.4,1.1-.6s.5-.3.6-.5c.1-.2.2-.3.2-.5s0-.4-.3-.6-.4-.2-.7-.2-.6,0-.8.2-.3.4-.3.6,0,.3,0,.4c0,.1.1.3.3.4.1.2.3.4.6.6l4.5,4.3-.8,1-4.8-4.6c-.3-.3-.5-.5-.7-.7-.2-.2-.3-.4-.4-.7,0-.2-.1-.4-.1-.7,0-.4.1-.7.3-1,.2-.3.5-.5.9-.7.4-.2.8-.2,1.3-.2s.9,0,1.2.2.6.4.8.6.3.6.3,1,0,.7-.3.9c-.2.3-.4.6-.8.8-.4.3-.8.5-1.4.8-.4.2-.8.4-1.1.6-.3.2-.4.4-.6.6-.1.2-.2.4-.2.6s0,.4.2.6c.1.2.3.3.6.4.3.1.6.2.9.2.5,0,1-.1,1.4-.3.4-.2.8-.6,1.1-1,.3-.5.5-1,.6-1.7l1.2.4c-.2.8-.5,1.5-.9,2.1s-.9,1-1.5,1.3c-.6.3-1.3.5-2,.5Z"/>
    <path class="cls-8" d="M1051.3,124.8c-.5,0-1.1,0-1.6-.2-.5-.1-.9-.3-1.2-.5l.6-1.2c.3.2.6.3,1,.5.4.1.8.2,1.2.2s.8,0,1-.2.3-.3.3-.5,0-.3-.2-.4c-.1,0-.3-.2-.6-.2-.2,0-.5,0-.8-.1-.3,0-.6,0-.9-.2-.3,0-.5-.2-.8-.3-.2-.1-.4-.3-.6-.5-.1-.2-.2-.5-.2-.9s.1-.8.4-1.1c.2-.3.6-.5,1-.7.4-.2.9-.2,1.5-.2s.9,0,1.3.1.8.2,1.1.4l-.6,1.2c-.3-.2-.6-.3-.9-.4-.3,0-.6-.1-.9-.1-.5,0-.8,0-1,.2-.2.1-.3.3-.3.5s0,.3.2.4c.1,0,.3.2.6.2.2,0,.5.1.8.1.3,0,.6,0,.9.2.3,0,.5.2.8.3.2.1.4.3.6.5.1.2.2.5.2.9s-.1.8-.4,1.1c-.2.3-.6.5-1,.7-.4.2-1,.2-1.6.2Z"/>
    <path class="cls-8" d="M1054.7,119.5v-1.2h4.3v1.2h-4.3ZM1058,124.8c-.7,0-1.3-.2-1.6-.6-.4-.4-.6-.9-.6-1.6v-5.8h1.5v5.8c0,.3,0,.5.2.7.2.2.4.3.7.3s.6,0,.8-.3l.4,1.1c-.2.1-.4.3-.7.3-.3,0-.5.1-.8.1Z"/>
    <path class="cls-8" d="M1063.4,124.8c-.7,0-1.3-.1-1.8-.4-.5-.3-.9-.7-1.2-1.2-.3-.5-.4-1.1-.4-1.7s.1-1.2.4-1.7c.3-.5.7-.9,1.2-1.2.5-.3,1.1-.4,1.8-.4s1.3.1,1.8.4c.5.3.9.7,1.2,1.2s.4,1.1.4,1.7-.1,1.2-.4,1.7c-.3.5-.7.9-1.2,1.2-.5.3-1.1.4-1.8.4ZM1063.4,123.5c.4,0,.7,0,1-.2.3-.2.5-.4.7-.7.2-.3.2-.7.2-1.1s0-.8-.2-1.1c-.2-.3-.4-.5-.7-.7-.3-.2-.6-.2-1-.2s-.7,0-1,.2c-.3.2-.5.4-.7.7-.2.3-.3.7-.3,1.1s0,.8.3,1.1c.2.3.4.5.7.7.3.2.6.2,1,.2Z"/>
    <path class="cls-8" d="M1068.3,124.7v-6.5h1.4v1.8l-.2-.5c.2-.4.5-.8.9-1,.4-.2.9-.3,1.6-.3v1.4c0,0-.1,0-.2,0s-.1,0-.2,0c-.6,0-1,.2-1.4.5-.3.3-.5.8-.5,1.5v3.1h-1.5Z"/>
    <path class="cls-8" d="M1074.1,127.2c-.3,0-.6,0-.9-.2-.3-.1-.6-.2-.8-.4l.6-1.1c.2.1.3.2.5.3.2,0,.4.1.6.1s.5,0,.7-.2c.2-.1.3-.4.5-.7l.4-.8v-.2c.1,0,2.6-5.7,2.6-5.7h1.5l-3,7c-.2.5-.4.9-.7,1.2s-.5.5-.8.6c-.3.1-.6.2-1,.2ZM1075.4,125l-2.9-6.7h1.6l2.4,5.6-1,1.1Z"/>
    <path class="cls-8" d="M1083,119.5v-1.2h4.3v1.2h-4.3ZM1084.1,124.7v-6.8c0-.7.2-1.2.6-1.6.4-.4,1-.6,1.7-.6s.5,0,.8,0,.4.1.6.3l-.4,1.1c-.1,0-.2-.2-.4-.2-.1,0-.3,0-.4,0-.3,0-.6,0-.7.3-.2.2-.2.4-.2.8v1.4s0,5.4,0,5.4h-1.5Z"/>
    <path class="cls-8" d="M1091.3,124.8c-.7,0-1.3-.1-1.9-.4-.5-.3-1-.7-1.2-1.2-.3-.5-.4-1.1-.4-1.7s.1-1.2.4-1.7c.3-.5.7-.9,1.2-1.2.5-.3,1.1-.4,1.7-.4s1.2.1,1.7.4.9.7,1.2,1.2c.3.5.4,1.1.4,1.8s0,.1,0,.2c0,0,0,.2,0,.2h-5.4v-1h4.6l-.6.3c0-.4,0-.7-.2-1-.2-.3-.4-.5-.7-.7-.3-.2-.6-.2-1-.2s-.7,0-1,.2c-.3.2-.5.4-.7.7-.2.3-.2.6-.2,1v.2c0,.4,0,.7.3,1,.2.3.4.5.8.7.3.2.7.2,1.1.2s.7,0,1-.2c.3-.1.5-.3.8-.5l.8.9c-.3.3-.7.6-1.1.8-.4.2-.9.3-1.5.3Z"/>
    <path class="cls-8" d="M1097.6,124.8c-.5,0-.9,0-1.3-.2-.4-.2-.6-.4-.8-.7-.2-.3-.3-.6-.3-1s0-.7.3-1c.2-.3.5-.5.9-.7.4-.2.9-.3,1.6-.3h1.9v1h-1.8c-.5,0-.9,0-1,.2-.2.2-.3.4-.3.6s.1.5.3.7c.2.2.5.2.9.2s.7,0,1-.3c.3-.2.5-.4.6-.8l.3.9c-.1.4-.4.7-.8.9-.4.2-.8.3-1.4.3ZM1099.6,124.7v-1.6c0,0,0-2.3,0-2.3,0-.4-.1-.8-.4-1s-.7-.4-1.2-.4-.7,0-1.1.2c-.4.1-.6.3-.9.5l-.6-1.1c.3-.3.8-.5,1.2-.6s1-.2,1.5-.2c.9,0,1.7.2,2.2.7.5.4.8,1.1.8,2.1v3.8h-1.4Z"/>
    <path class="cls-8" d="M1102.1,119.5v-1.2h4.3v1.2h-4.3ZM1105.4,124.8c-.7,0-1.3-.2-1.6-.6-.4-.4-.6-.9-.6-1.6v-5.8h1.5v5.8c0,.3,0,.5.2.7.2.2.4.3.7.3s.6,0,.8-.3l.4,1.1c-.2.1-.4.3-.7.3-.3,0-.5.1-.8.1Z"/>
    <path class="cls-8" d="M1110.8,124.8c-.5,0-1-.1-1.5-.3-.4-.2-.7-.5-1-.9-.2-.4-.4-1-.4-1.6v-3.7h1.5v3.5c0,.6.1,1,.4,1.3.3.3.6.4,1.1.4s.7,0,.9-.2c.3-.1.5-.4.6-.7.1-.3.2-.6.2-1.1v-3.3h1.5v6.5h-1.4v-1.7l.3.5c-.2.4-.5.7-1,1-.4.2-.9.3-1.4.3Z"/>
    <path class="cls-8" d="M1116.3,124.7v-6.5h1.4v1.8l-.2-.5c.2-.4.5-.8.9-1,.4-.2.9-.3,1.6-.3v1.4c0,0-.1,0-.2,0s-.1,0-.2,0c-.6,0-1,.2-1.4.5-.3.3-.5.8-.5,1.5v3.1h-1.5Z"/>
    <path class="cls-8" d="M1124.3,124.8c-.7,0-1.3-.1-1.9-.4-.5-.3-1-.7-1.2-1.2-.3-.5-.4-1.1-.4-1.7s.1-1.2.4-1.7c.3-.5.7-.9,1.2-1.2.5-.3,1.1-.4,1.7-.4s1.2.1,1.7.4.9.7,1.2,1.2c.3.5.4,1.1.4,1.8s0,.1,0,.2c0,0,0,.2,0,.2h-5.4v-1h4.6l-.6.3c0-.4,0-.7-.2-1-.2-.3-.4-.5-.7-.7-.3-.2-.6-.2-1-.2s-.7,0-1,.2c-.3.2-.5.4-.7.7-.2.3-.2.6-.2,1v.2c0,.4,0,.7.3,1,.2.3.4.5.8.7.3.2.7.2,1.1.2s.7,0,1-.2c.3-.1.5-.3.8-.5l.8.9c-.3.3-.7.6-1.1.8-.4.2-.9.3-1.5.3Z"/>
    <path class="cls-8" d="M1129.3,124.8c-.3,0-.5,0-.7-.3-.2-.2-.3-.4-.3-.7s0-.6.3-.7c.2-.2.4-.3.7-.3s.5,0,.7.3.3.4.3.7,0,.5-.3.7c-.2.2-.4.3-.7.3Z"/>
  </g>
  <text class="cls-11" transform="translate(807.3 111.2)"><tspan x="0" y="0">05</tspan></text>
  <text class="cls-1" transform="translate(926.2 87.3)"><tspan x="0" y="0">SOLUTION</tspan></text>
</svg>