<?xml version="1.0" encoding="utf-8"?>
<!-- Generator: Adobe Illustrator 27.0.0, SVG Export Plug-In . SVG Version: 6.00 Build 0)  -->
<svg version="1.1" id="Layer_1" xmlns="http://www.w3.org/2000/svg" xmlns:xlink="http://www.w3.org/1999/xlink" x="0px" y="0px"
	 viewBox="0 0 112 41" style="enable-background:new 0 0 112 41;" xml:space="preserve">
<style type="text/css">
	.st0{fill:#153CF5;}
</style>
<g>
	<path class="st0" d="M32.2,30.6c1.7-1,3.5-2,5.2-3.1c0.2-0.2,0.5-0.5,0.5-0.8c0.1-1.3,0.1-2.6,0-3.9c0-0.3-0.3-0.7-0.5-0.8
		c-5.1-2.2-10.2-4.3-15.3-6.4c-0.3-0.1-0.7-0.1-1,0.1c-1.8,0.8-3.5,1.6-5.3,2.4c-0.2,0.1-0.5,0.2-0.8,0.4c0-0.3-0.1-0.6-0.1-0.8
		c0-4,0-8.1,0-12.1c0-1.4,0.3-2.7,1.2-3.8c0.8-0.9,1.7-1.4,2.9-1.4c8.5,0,17,0,25.4,0c2.1,0,3.8,1.7,4.1,4c0,0.3,0.1,0.7,0.1,1
		c0,6.6,0,13.2-0.1,19.9c-0.1,5.4-2.5,9.7-7,12.6c-4.5,2.9-9.4,3.6-14.6,2.2c-0.2,0-0.3-0.1-0.6-0.3c1.8-1,3.5-2,5.3-3
		c0.5-0.3,0.7-0.6,0.7-1.2C32.2,33.9,32.2,32.2,32.2,30.6L32.2,30.6z M42.8,15.3c-4-1.7-8-3.3-11.9-5.1c-1.3-0.6-2.4-0.7-3.7,0.1
		c-1.2,0.7-2.6,1.3-4,1.9c0.3,0.2,0.5,0.2,0.7,0.3c4.4,1.9,8.8,3.8,13.2,5.7c0.7,0.3,1,0.7,0.9,1.4c-0.1,0.8,0,1.6,0,2.5
		c1.5-0.9,2.8-1.6,4.2-2.4c0.5-0.2,0.6-0.5,0.6-1.1C42.7,17.6,42.7,16.4,42.8,15.3c0.4-0.3,0.8-0.7,1.3-0.8c1.9-0.6,2.5-2,2.2-3.9
		c-0.1-0.5-0.2-0.7-0.6-0.9c-3.1-1.3-6.1-2.6-9.2-3.9c-0.2-0.1-0.5-0.2-0.7-0.1c-1.4,0.6-2.7,1.2-4.2,1.9c0.4,0.2,0.6,0.3,0.9,0.4
		c3.2,1.4,6.3,2.8,9.5,4.1c0.6,0.3,0.9,0.5,0.8,1.2C42.6,14,42.7,14.6,42.8,15.3z"/>
	<path class="st0" d="M32.2,30.6c-5.4-2.3-10.9-4.6-16.3-6.9c-0.7-0.3-1-0.7-1-1.5c0.1-1.1,0-2.2,0-3.4c0.3,0.1,0.6,0.2,0.8,0.3
		c5.3,2.3,10.5,4.6,15.8,6.9c0.6,0.2,0.7,0.5,0.7,1.1C32.2,28.2,32.2,29.4,32.2,30.6C32.2,30.6,32.2,30.6,32.2,30.6z"/>
	<path class="st0" d="M16.4,31c3,1.3,6.1,2.7,9.1,4c0.2,0.1,0.3,0.3,0.3,0.5c0,1.3,0,2.7,0,4.1C21.4,38.1,18.2,35.3,16.4,31z"/>
	<g>
		<path d="M67.5,2.4c2.7,0,5.2-0.1,7.8,0c2.1,0.1,3,1.3,3,3.4c0,0.4,0,0.7,0,1.1c0,1.5-0.7,2.4-2.3,2.8c3.2,0.9,2.1,3.4,2.3,5.5
			c-1.2,0-2.4,0-3.6,0c0-0.8,0-1.6,0-2.4c0-1-0.4-1.4-1.4-1.4c-0.7,0-1.4,0-2.2,0c0,1.3,0,2.5,0,3.8c-1.2,0-2.4,0-3.6,0
			C67.5,11,67.5,6.7,67.5,2.4z M71.2,5.3c0,1.1,0,2.1,0,3.2c0.8,0,1.6,0,2.3,0c1,0,1.3-0.7,1.2-1.6c0-1.2-0.3-1.6-1.3-1.6
			C72.7,5.2,72,5.3,71.2,5.3z"/>
		<path d="M59.7,10.7c0-0.8,0-1.5,0-2.3c1.8,0,3.6,0,5.4,0c0.1,1.6,0.2,3.3-0.4,4.9c-0.5,1.2-1.4,1.9-2.7,2.1
			c-1.7,0.2-3.4,0.3-5,0.1c-1.9-0.1-3.2-1.3-3.4-3.2c-0.2-2.2-0.2-4.6,0-6.8c0.2-2,1.6-3.2,3.6-3.4C58.8,2,60.4,2,61.9,2.3
			c2.2,0.4,3.3,2,3.2,4.1c-1.2,0-2.3,0-3.5,0c-0.7-1.3-2.5-1.9-3.9-1.2c-0.3,0.2-0.7,0.6-0.7,1C57,7.9,57,9.7,57,11.4
			c0,0.1,0.1,0.3,0.1,0.4c0.3,1,1.6,0.9,3.4,0.7c0.9-0.1,1.1-0.8,1-1.7C61,10.7,60.4,10.7,59.7,10.7z"/>
		<path d="M93.7,15.3c-1.3,0-2.4,0-3.6,0c0-3.3,0-6.6,0-10c-1.2,0-2.2,0-3.4,0c0-1.1,0-2,0-3c3.4,0,6.9,0,10.4,0c0,1,0,1.9,0,2.9
			c-1.1,0-2.2,0-3.3,0C93.7,8.6,93.7,11.9,93.7,15.3z"/>
		<path d="M80.8,2.3c1.2,0,2.3,0,3.5,0c0,4.3,0,8.6,0,13c-1.1,0-2.3,0-3.5,0C80.8,11,80.8,6.7,80.8,2.3z"/>
		<path d="M53.3,18.1c1.2,0,2.5,0,3.8,0c0,0.5,0,0.9,0,1.3c0,2.7,0,5.4,0,8.1c0,1.8,0.5,2.2,2.3,2.3c0,0,0.1,0,0.1,0
			c2.5,0,2.9-0.3,2.9-2.8c0.1-2.9,0-5.8,0-8.8c1.3,0,2.6,0,3.9,0c0,0.1,0.1,0.1,0.1,0.2c0,3.7,0,7.5-0.1,11.2
			c-0.1,2-1.5,3.5-3.5,3.6c-2,0.2-4,0.2-6,0c-1.9-0.1-3.4-1.5-3.5-3.4C53.2,25.9,53.3,22,53.3,18.1z M63.1,18.6c0,0.5,0,0.9,0,1.3
			c0,2.5,0.1,4.9-0.1,7.4c-0.1,2.5-0.8,3.1-3.3,3c-0.2,0-0.4,0-0.6,0c-1.8-0.2-2.3-0.7-2.4-2.5c-0.1-2.7-0.1-5.3-0.1-8
			c0-0.4,0-0.8,0-1.2c-1,0-1.9,0-2.8,0c0,3.6-0.1,7.2,0,10.7c0.1,2,1.3,3.1,3.2,3.3c1.8,0.2,3.7,0.2,5.5,0c2.2-0.2,3.3-1.6,3.4-3.9
			c0.1-1.6,0-3.2,0-4.7c0-1.8,0-3.6,0-5.4C65.1,18.6,64.2,18.6,63.1,18.6z"/>
		<path d="M84.4,18.2c3.1,0,6.1-0.1,9.2,0c1.8,0.1,3,1.3,3.2,3.2c0.1,1.4,0.2,2.8,0,4.1c-0.3,2-1.4,3-3.4,3.3
			c-1.6,0.2-3.2,0.2-4.9,0.3c0,1.2,0,2.5,0,3.8c-1.4,0-2.7,0-4.1,0C84.4,28.1,84.4,23.1,84.4,18.2z M84.9,18.8c0,4.6,0,9.2,0,13.8
			c1,0,1.9,0,2.9,0c0-1,0-1.9,0-2.8c-0.1-1,0.3-1.2,1.2-1.2c1.2,0,2.5,0.1,3.7,0c2.3-0.2,3.4-1.3,3.6-3.5c0.1-1,0.1-2,0-3
			c-0.2-1.9-1-3-2.9-3.2C90.6,18.6,87.8,18.8,84.9,18.8z"/>
		<path d="M69.5,33c0-5,0-9.9,0-14.8c0.1,0,0.1-0.1,0.2-0.1c2.9,0,5.7-0.1,8.6,0.1c2.5,0.2,3.7,1.6,3.8,4.1c0,0.9,0,1.8,0,2.7
			c-0.2,2.2-1.4,3.5-3.6,3.8c-0.8,0.1-1.6,0.2-2.4,0.2c-0.8,0-1.6,0-2.5,0c0,0.7,0,1.3,0,1.9c0,0.6,0,1.3,0,2
			C72.1,33,70.8,33,69.5,33z M72.9,32.5c0-1,0-1.8,0-2.6c0-1.3,0.1-1.3,1.4-1.4c1.1,0,2.3,0,3.4,0c2.3-0.1,3.4-1.2,3.7-3.5
			c0.1-0.9,0.1-1.7,0.1-2.6c-0.2-2.5-1.3-3.7-3.9-3.8c-1.7-0.1-3.5,0-5.2,0c-0.8,0-1.6,0-2.4,0c0,4.7,0,9.3,0,14
			C71,32.5,71.9,32.5,72.9,32.5z"/>
		<path d="M87.8,23.5c0-2.6,0-2.6,2.5-2.6c0.3,0,0.6,0,0.9,0c0.3,0,0.5,0,0.8,0.1c1.1,0.4,1.5,1.4,1.2,3.5c-0.1,1.1-0.6,1.6-1.8,1.7
			c-0.9,0-1.9,0-2.8,0c-0.7,0-0.9-0.3-0.9-0.9C87.9,24.7,87.8,24.1,87.8,23.5z M88.5,25.7c0.8,0,1.5,0,2.2,0c1.9,0,2.2-0.3,2.2-2.2
			c0-0.3,0-0.7-0.1-1c-0.2-0.4-0.6-0.9-1-1c-1.1-0.1-2.2,0-3.3,0C88.5,22.9,88.5,24.3,88.5,25.7z"/>
		<path d="M72.9,23.5c0-2.6,0-2.6,2.6-2.6c0.5,0,1.1-0.1,1.5,0.1c0.5,0.2,1.1,0.7,1.2,1.2c0.2,0.9,0.1,1.9,0,2.9
			c-0.1,0.9-0.9,1.1-1.7,1.1c-0.9,0-1.8,0-2.7,0c-0.7,0-0.9-0.3-0.9-0.9C72.9,24.7,72.9,24.1,72.9,23.5z M73.5,25.7
			c1.1,0,2.2,0.1,3.2,0c0.4,0,1-0.5,1.1-0.8c0.2-0.8,0.2-1.6,0-2.4c-0.1-0.4-0.7-0.9-1.1-1c-1-0.1-2.1,0-3.2,0
			C73.5,22.9,73.5,24.2,73.5,25.7z"/>
	</g>
</g>
</svg>
